<svg width="32" height="32" fill="none" xmlns="http://www.w3.org/2000/svg"><path d="M32 0Z" fill="url(#a)"/><path d="M0 32Z" fill="url(#b)"/><path fill-rule="evenodd" clip-rule="evenodd" d="M32 0Z" fill="url(#c)"/><path fill-rule="evenodd" clip-rule="evenodd" d="M0 32Z" fill="url(#d)"/><path d="M18 21c0 8 6-5 10-13l3-7c-4 5-17 19-17 10 0-8-6 5-10 13l-3 7c4-5 17-19 17-10Z" fill="url(#e)"/><path fill-rule="evenodd" clip-rule="evenodd" d="M32 0Zm0 0ZM0 32Zm0 0Z" fill="url(#f)"/><defs><linearGradient id="a" x1="31.2" y1="1.1" x2=".9" y2="30.8" gradientUnits="userSpaceOnUse"><stop stop-color="#6DEFF7"/><stop offset=".5" stop-color="#AF5FDA"/><stop offset="1" stop-color="#F82697"/></linearGradient><linearGradient id="b" x1="31.2" y1="1.1" x2=".9" y2="30.8" gradientUnits="userSpaceOnUse"><stop stop-color="#6DEFF7"/><stop offset=".5" stop-color="#AF5FDA"/><stop offset="1" stop-color="#F82697"/></linearGradient><linearGradient id="c" x1="31.2" y1="1.1" x2=".9" y2="30.8" gradientUnits="userSpaceOnUse"><stop stop-color="#6DEFF7"/><stop offset=".5" stop-color="#AF5FDA"/><stop offset="1" stop-color="#F82697"/></linearGradient><linearGradient id="d" x1="31.2" y1="1.1" x2=".9" y2="30.8" gradientUnits="userSpaceOnUse"><stop stop-color="#6DEFF7"/><stop offset=".5" stop-color="#AF5FDA"/><stop offset="1" stop-color="#F82697"/></linearGradient><linearGradient id="e" x1="31.2" y1="1.1" x2=".9" y2="30.8" gradientUnits="userSpaceOnUse"><stop stop-color="#6DEFF7"/><stop offset=".5" stop-color="#AF5FDA"/><stop offset="1" stop-color="#F82697"/></linearGradient><linearGradient id="f" x1="31.2" y1="1.1" x2=".9" y2="30.8" gradientUnits="userSpaceOnUse"><stop stop-color="#6DEFF7"/><stop offset=".5" stop-color="#AF5FDA"/><stop offset="1" stop-color="#F82697"/></linearGradient></defs></svg>
